<svg width="22" height="22" viewBox="0 0 22 22" fill="none" xmlns="http://www.w3.org/2000/svg">
<g clip-path="url(#clip0)">
<path d="M12.7186 12.2887C16.1066 12.2887 18.8629 9.53238 18.8629 6.14435C18.8629 2.75632 16.1066 0 12.7186 0C9.33054 0 6.57422 2.75632 6.57422 6.14435C6.57422 9.53238 9.33058 12.2887 12.7186 12.2887ZM12.7186 1.28902C15.3958 1.28902 17.5739 3.46709 17.5739 6.14435C17.5739 8.82161 15.3958 10.9997 12.7186 10.9997C10.0413 10.9997 7.86324 8.82161 7.86324 6.14435C7.86324 3.46709 10.0414 1.28902 12.7186 1.28902Z" fill="#F7941E"/>
<path d="M13.4371 5.51366C13.1159 5.40006 12.5922 5.20924 12.3298 5.00347C12.3139 4.99096 12.2842 4.91616 12.3051 4.805C12.3152 4.75164 12.3613 4.57349 12.5342 4.52137C12.8012 4.44046 13.0546 4.49362 13.2209 4.61676C13.4834 4.85579 13.8899 4.83761 14.1299 4.57568C14.3696 4.31405 14.3526 3.90818 14.0925 3.66739C14.0925 3.66739 13.7938 3.40151 13.3668 3.2757V3.22264C13.3668 2.86669 13.0783 2.57812 12.7223 2.57812C12.3664 2.57812 12.0778 2.86669 12.0778 3.22264V3.31588C10.9193 3.73722 10.6469 5.32194 11.5344 6.01784C11.9388 6.33486 12.5165 6.55524 13.007 6.72883C13.3265 6.84183 13.359 7.07093 13.33 7.24328C13.2977 7.43504 13.1325 7.76035 12.718 7.76306C12.2882 7.76581 12.1862 7.75004 11.8726 7.54474C11.5747 7.34984 11.1753 7.43315 10.9803 7.73104C10.7854 8.02889 10.8688 8.42836 11.1666 8.62331C11.5093 8.84755 11.7806 8.95867 12.0778 9.0107V9.0727C12.0778 9.42865 12.3663 9.71722 12.7223 9.71722C13.0782 9.71722 13.3668 9.42865 13.3668 9.0727V8.93783C14.9283 8.37345 15.1355 6.11444 13.4371 5.51366V5.51366Z" fill="#F7941E"/>
<path d="M18.6501 12.5458L11.2615 14.227C11.0924 14.0735 10.8983 13.9445 10.6833 13.8477L6.88931 12.1457C5.78578 11.6491 4.52271 11.6551 3.42716 12.1608L0.377761 13.5484C0.0537427 13.6958 -0.0893821 14.078 0.0580824 14.402C0.205504 14.726 0.587657 14.8691 0.911632 14.7216L3.96421 13.3326C4.72397 12.9819 5.59732 12.9778 6.36103 13.3214L10.155 15.0235C10.4866 15.1727 10.6991 15.5043 10.6991 15.865C10.6991 16.532 10.0125 16.9833 9.39758 16.7065L6.11706 15.2303C5.79235 15.0841 5.41089 15.2289 5.26484 15.5535C5.11875 15.8781 5.26351 16.2597 5.58808 16.4057L8.86861 17.882C10.5186 18.6245 12.325 17.172 11.9373 15.3951C16.7499 14.3 18.9637 13.797 18.9945 13.7879C19.8631 13.5311 20.7105 14.1835 20.7105 15.0686C20.7105 15.5383 20.4595 15.9788 20.0569 16.2173L13.1132 20.307C12.3807 20.7409 11.4998 20.8285 10.6963 20.547L5.36916 18.6826C5.22561 18.6324 5.06891 18.6346 4.92681 18.6887L0.415228 20.4074C0.0825738 20.5341 -0.0843119 20.9065 0.0423992 21.2391C0.16911 21.5718 0.54151 21.7387 0.874121 21.6119L5.16563 19.9771L10.2703 21.7636C11.4107 22.163 12.6885 22.0569 13.7688 21.4168L20.7125 17.3272C21.5064 16.8568 21.9995 15.9914 21.9995 15.0686C21.9995 13.3404 20.3445 12.0595 18.6501 12.5458V12.5458Z" fill="#F7941E"/>
</g>
<defs>
<clipPath id="clip0">
<rect width="22" height="22" fill="white"/>
</clipPath>
</defs>
</svg>
