<?xml version="1.0" encoding="UTF-8"?>
<svg width="256px" height="256px" viewBox="0 0 256 256" version="1.1" xmlns="http://www.w3.org/2000/svg" xmlns:xlink="http://www.w3.org/1999/xlink">
    <title>naira_token</title>
    <g id="Logo" stroke="none" stroke-width="1" fill="none" fill-rule="evenodd">
        <g id="Naira-Token" transform="translate(-63.000000, -120.000000)">
            <g id="naira_token" transform="translate(63.000000, 120.000000)">
                <circle id="Oval-Copy" fill="#0066C4" cx="128" cy="128" r="128"></circle>
                <path d="M86.0871582,69.9733333 C91.8439697,69.9733333 97.1736337,73.0107345 100.107717,77.9637171 L152.576636,166.535737 L152.576636,103.374304 L152.58,103.144333 L146.259155,103.145164 C142.945446,103.145164 140.259155,100.458873 140.259155,97.1451643 L140.259155,96.1648826 C140.259155,92.8511741 142.945446,90.1648826 146.259155,90.1648826 L173.2,90.1648826 C176.513708,90.1648826 179.2,92.8511741 179.2,96.1648826 L179.2,97.1451643 C179.2,100.458873 176.513708,103.145164 173.2,103.145164 L166.21593,103.144781 C166.218449,103.220979 166.219718,103.297493 166.219718,103.374304 L166.219718,178.577144 C166.219718,183.11622 162.54007,186.795869 158.000994,186.795869 C152.906428,186.795869 148.189827,184.108028 145.593028,179.724965 L90.443082,86.6389258 L90.443082,179.974328 C90.443082,183.741761 87.3889741,186.795869 83.621541,186.795869 C79.8541079,186.795869 76.8,183.741761 76.8,179.974328 L76.8,79.2604916 C76.8,74.1313357 80.9580024,69.9733333 86.0871582,69.9733333 Z M173.2,69.9733333 C176.513708,69.9733333 179.2,72.6596248 179.2,75.9733333 L179.2,76.953615 C179.2,80.2673235 176.513708,82.953615 173.2,82.953615 L146.259155,82.953615 C142.945446,82.953615 140.259155,80.2673235 140.259155,76.953615 L140.259155,75.9733333 C140.259155,72.6596248 142.945446,69.9733333 146.259155,69.9733333 L173.2,69.9733333 Z" id="Combined-Shape" fill="#FFFFFF" fill-rule="nonzero"></path>
            </g>
        </g>
    </g>
</svg>