<svg width="34" height="34" viewBox="0 0 34 34" fill="none" xmlns="http://www.w3.org/2000/svg">
<circle cx="17" cy="17" r="17" fill="black"/>
<path d="M25.8229 12.5259C24.9721 11.9308 24.0622 11.2964 23.1721 10.6669C23.1524 10.6522 23.1327 10.6374 23.1081 10.6226C23.0098 10.5489 22.8967 10.4702 22.759 10.4259L22.7491 10.421C20.3688 9.84559 17.9491 9.25543 15.6082 8.68493C13.4836 8.16854 11.3639 7.65214 9.23934 7.13575C9.18524 7.12099 9.13114 7.10624 9.07213 7.09149C8.88033 7.03739 8.65901 6.97837 8.42295 7.00788C8.3541 7.01772 8.29508 7.04231 8.24098 7.07673L8.18197 7.12591C8.08852 7.21444 8.03934 7.32755 8.01475 7.39149L8 7.43083V7.65706L8.00984 7.69149C9.35245 11.4538 10.7295 15.2702 12.0574 18.9637C13.0803 21.8063 14.1426 24.7522 15.1803 27.644C15.2442 27.8407 15.4262 27.9686 15.6524 27.9883H15.7016C15.9131 27.9883 16.1 27.885 16.1934 27.7178L20.0885 22.0374C21.0377 20.6555 21.9868 19.2686 22.936 17.8866C23.3245 17.321 23.7131 16.7505 24.1016 16.185C24.7409 15.2505 25.3999 14.2866 26.054 13.3472L26.0885 13.2981V13.239C26.1032 13.0669 26.1081 12.7128 25.8229 12.5259V12.5259ZM21.259 14.5964C20.3442 15.0735 19.4098 15.5653 18.4705 16.0522C19.0164 15.4669 19.5672 14.8768 20.1131 14.2915C20.7967 13.5538 21.5098 12.7915 22.2081 12.044L22.2229 12.0292C22.2819 11.9505 22.3557 11.8767 22.4344 11.7981C22.4885 11.744 22.5475 11.6899 22.6016 11.6259C22.9655 11.8767 23.3344 12.1325 23.6885 12.3833C23.9442 12.5653 24.2049 12.7472 24.4704 12.9292C23.3885 13.48 22.3065 14.0456 21.259 14.5964ZM18.9082 14.3604C18.2049 15.1227 17.477 15.9046 16.7541 16.6768C15.3524 14.9751 13.9213 13.2489 12.5344 11.5817C11.9049 10.8243 11.2705 10.062 10.641 9.30461L10.6361 9.29969C10.4934 9.13739 10.3557 8.96034 10.218 8.79313C10.1295 8.68002 10.0361 8.57182 9.94262 8.4587C10.5131 8.60624 11.0885 8.74395 11.6541 8.87674C12.1508 8.99477 12.6672 9.11772 13.1738 9.24559C16.0262 9.93904 18.8836 10.6325 21.736 11.3259C20.7868 12.339 19.8327 13.3669 18.9082 14.3604ZM16.4344 23.9456C16.4885 23.4292 16.5475 22.8981 16.5967 22.3768C16.641 21.9587 16.6852 21.5309 16.7295 21.1227C16.7983 20.4686 16.8721 19.7899 16.9311 19.1259L16.9459 19.0079C16.9951 18.585 17.0442 18.1473 17.0737 17.7095C17.1278 17.68 17.1869 17.6505 17.2508 17.6259C17.3246 17.5915 17.3983 17.562 17.4721 17.5177C18.6082 16.9227 19.7442 16.3276 20.8852 15.7374C22.0213 15.1472 23.1868 14.5374 24.3426 13.9325C23.2901 15.4571 22.2327 16.9964 21.2098 18.4964C20.3295 19.78 19.4246 21.103 18.5246 22.4063C18.1705 22.9276 17.8016 23.4587 17.4524 23.9702C17.059 24.5407 16.6557 25.126 16.2623 25.7112C16.3114 25.121 16.3705 24.526 16.4344 23.9456V23.9456ZM9.57868 9.61936C9.51475 9.44231 9.4459 9.26035 9.38688 9.08821C10.7147 10.6915 12.0524 12.3046 13.3557 13.8686C14.0295 14.68 14.7033 15.4866 15.377 16.303C15.5098 16.4554 15.6426 16.6177 15.7705 16.7751C15.9377 16.9768 16.1049 17.1882 16.2869 17.3899C16.2278 17.8964 16.1787 18.4079 16.1246 18.8997C16.0901 19.244 16.0557 19.5882 16.0164 19.9374V19.9423C16.0016 20.1637 15.9721 20.385 15.9475 20.6014C15.9131 20.9014 15.8344 21.5801 15.8344 21.5801L15.8295 21.6145C15.741 22.6079 15.6328 23.6112 15.5295 24.585C15.4852 24.9883 15.4459 25.4014 15.4016 25.8145C15.377 25.7407 15.3475 25.6669 15.3229 25.5981C15.2492 25.4014 15.1754 25.1948 15.1065 24.9932L14.5803 23.5325C12.9131 18.8948 11.2459 14.262 9.57868 9.61936Z" fill="white"/>
</svg>
