<svg width="34" height="34" viewBox="0 0 34 34" fill="none" xmlns="http://www.w3.org/2000/svg">
<rect width="34" height="34" rx="17" fill="#50AF95"/>
<path d="M18.8264 14.0462V11.6492H23.871V8H10.1373V11.6492H15.1819V14.0462C11.0844 14.2519 8 15.1329 8 16.1883C8 17.2437 11.0844 18.1247 15.1819 18.3304V26H18.8305V18.3304C22.9238 18.1247 26 17.2437 26 16.1883C25.9959 15.1329 22.9197 14.2519 18.8264 14.0462ZM18.8305 17.682C18.7275 17.6865 18.2004 17.7222 17.0226 17.7222C16.0796 17.7222 15.4207 17.6954 15.186 17.682V17.6865C11.5662 17.5121 8.86067 16.8278 8.86067 16.0094C8.86067 15.1911 11.5621 14.5068 15.186 14.3324V16.9978C15.4248 17.0157 16.1002 17.0604 17.0391 17.0604C18.1633 17.0604 18.7275 17.0112 18.8346 16.9978V14.3235C22.4502 14.4979 25.1476 15.1821 25.1476 16.0005C25.1393 16.8189 22.442 17.5031 18.8305 17.682Z" fill="white"/>
</svg>
