<svg width="30" height="30" viewBox="0 0 30 30" fill="none" xmlns="http://www.w3.org/2000/svg">
<path d="M26.0868 11.7392L14.9999 18.9131L3.91299 11.7392V0.652283C3.90535 0.299744 4.18495 0.00779564 4.53749 0.000153019C4.54672 -3.04038e-05 4.55595 -3.04038e-05 4.56519 0.000153019H25.4346C25.7872 -0.0074896 26.0792 0.272108 26.0868 0.624647C26.087 0.633879 26.087 0.643112 26.0868 0.652344V11.7392Z" fill="#F1F2F2"/>
<path d="M3.91303 11.7393L0 9.13055L3.91303 5.21753V11.7393Z" fill="#F6B445"/>
<path d="M30 9.13055L26.0869 11.7393V5.21753L30 9.13055Z" fill="#F6B445"/>
<path d="M26.0869 11.6806L29.9999 9.13062V27.3914C29.9987 28.0832 29.7245 28.7464 29.2369 29.2371L24.7826 24.7828L17.6087 17.6089L17.426 17.3284L26.0869 11.6806Z" fill="#FED049"/>
<path d="M24.7827 24.7827L29.237 29.237C28.7463 29.7246 28.0831 29.9988 27.3913 30H2.60885C1.9171 29.9988 1.25384 29.7246 0.763184 29.237L5.21749 24.7827L12.3913 17.6088L12.574 17.3284L15 18.9131L17.4261 17.3284L17.6087 17.6088L24.7827 24.7827Z" fill="#F6B445"/>
<path d="M12.5741 17.3284L12.3915 17.6089L5.21759 24.7827L0.763284 29.237C0.275684 28.7464 0.00146696 28.0831 0.000244141 27.3914V9.13062L12.5741 17.3284Z" fill="#FED049"/>
</svg>
