<svg width="30" height="30" viewBox="0 0 30 30" fill="none" xmlns="http://www.w3.org/2000/svg">
<path d="M0.86167 6.45773C0.374668 6.43479 0 6.01527 0 5.52773V0.905433C0 0.405392 0.405392 0 0.905433 0H5.52773C6.01527 0 6.43479 0.374668 6.45773 0.86167C6.48223 1.38163 6.06791 1.81087 5.55332 1.81087H2.05231C1.91897 1.81087 1.81087 1.91897 1.81087 2.05231V5.55332C1.81087 6.06791 1.38163 6.48223 0.86167 6.45773Z" fill="#6CBFF8"/>
<path d="M5.55332 30H0.905433C0.405392 30 0 29.5946 0 29.0946V24.4723C0 23.9847 0.374668 23.5652 0.86167 23.5423C1.38163 23.5178 1.81087 23.9321 1.81087 24.4467V27.9477C1.81087 28.0811 1.91897 28.1892 2.05231 28.1892H5.52773C6.01527 28.1892 6.43479 28.5638 6.45773 29.0508C6.48223 29.5708 6.06791 30 5.55332 30Z" fill="#6CBFF8"/>
<path d="M29.0508 6.45773C28.5638 6.43479 28.1892 6.01527 28.1892 5.52773V2.05231C28.1892 1.91897 28.0811 1.81087 27.9477 1.81087H24.4723C23.9847 1.81087 23.5652 1.4362 23.5423 0.949195C23.5178 0.429235 23.9321 0 24.4467 0H29.0946C29.5946 0 30 0.405392 30 0.905433V5.55332C30 6.06791 29.5708 6.48223 29.0508 6.45773Z" fill="#6CBFF8"/>
<path d="M29.0946 30H24.4723C23.9847 30 23.5652 29.6254 23.5423 29.1384C23.5178 28.6184 23.9321 28.1892 24.4467 28.1892H27.9477C28.0811 28.1892 28.1892 28.0811 28.1892 27.9477V24.4723C28.1892 23.9847 28.5638 23.5652 29.0508 23.5423C29.5708 23.5178 30 23.9321 30 24.4467V29.0946C30 29.5946 29.5946 30 29.0946 30Z" fill="#6CBFF8"/>
<path d="M25.5894 23.9162C25.476 23.9162 25.3608 23.8948 25.2492 23.8495C24.7858 23.6615 24.5627 23.1333 24.7508 22.67C25.6883 20.3602 26.1652 17.9164 26.1681 15.406C26.1635 12.4777 25.0297 9.71073 22.9742 7.61278C22.6243 7.25562 22.6302 6.68236 22.9874 6.33238C23.3445 5.98246 23.9178 5.98831 24.2678 6.34554C26.6478 8.77481 27.9644 11.977 27.9788 15.3677C27.9789 15.3726 27.9789 15.3776 27.9789 15.3825V15.4239C27.9789 15.4275 27.9789 15.4311 27.9789 15.4346C27.9724 18.1697 27.4509 20.8328 26.4286 23.3511C26.2859 23.7029 25.947 23.9162 25.5894 23.9162Z" fill="#FFB427"/>
<path d="M9.60752 5.5283C9.27571 5.5283 8.95621 5.34529 8.7974 5.0285C8.57327 4.58146 8.754 4.03742 9.20104 3.81329C11.0126 2.90508 12.9637 2.44458 14.9998 2.44458C16.5323 2.44458 18.0337 2.71054 19.4622 3.23508C19.9316 3.40742 20.1725 3.92774 20.0001 4.39712C19.8277 4.86655 19.3072 5.10716 18.838 4.935C17.61 4.48404 16.3187 4.25545 14.9998 4.25545C13.248 4.25545 11.57 4.65136 10.0126 5.43209C9.88241 5.49734 9.74388 5.5283 9.60752 5.5283Z" fill="#FFB427"/>
<path d="M2.92618 16.3291C2.42614 16.3291 2.02075 15.9237 2.02075 15.4237C2.02075 12.0119 3.33888 8.78775 5.73224 6.34501C6.08222 5.98779 6.65542 5.98199 7.01264 6.33197C7.36981 6.68189 7.37566 7.25515 7.02568 7.61237C4.96594 9.71455 3.83162 12.4887 3.83162 15.4237C3.83162 15.9237 3.42628 16.3291 2.92618 16.3291Z" fill="#FFB427"/>
<path d="M8.97377 26.7765C8.66176 26.7765 8.35814 26.615 8.19009 26.3258C7.93886 25.8934 8.08572 25.3392 8.5181 25.088C11.9577 23.0893 14.0945 19.3862 14.0945 15.4237C14.0945 14.9237 14.4999 14.5183 14.9999 14.5183C15.5 14.5183 15.9054 14.9237 15.9054 15.4237C15.9054 17.7357 15.2869 20.0075 14.1168 21.9933C12.982 23.9191 11.3606 25.5307 9.42788 26.6537C9.2847 26.7369 9.12824 26.7765 8.97377 26.7765Z" fill="#FFB427"/>
<path d="M13.5454 28.2796C13.3004 28.2796 13.0562 28.1808 12.8776 27.986C12.5397 27.6174 12.5647 27.0446 12.9333 26.7068C14.0849 25.6512 15.065 24.4323 15.8462 23.0842C16.0968 22.6515 16.6509 22.504 17.0836 22.7548C17.5162 23.0054 17.6637 23.5594 17.413 23.9921C16.5396 25.4994 15.4441 26.8619 14.157 28.0417C13.9831 28.201 13.7639 28.2796 13.5454 28.2796Z" fill="#FFB427"/>
<path d="M5.5987 23.9159C5.21226 23.9159 4.85432 23.6664 4.73408 23.2779C4.58625 22.8002 4.85359 22.2931 5.33136 22.1453C8.29756 21.2272 10.2905 18.526 10.2905 15.4236C10.2905 12.8268 12.4031 10.7141 15 10.7141C17.5968 10.7141 19.7095 12.8268 19.7095 15.4236C19.7095 16.9617 19.5052 18.4869 19.1024 19.9571C18.9703 20.4393 18.4721 20.7229 17.9898 20.591C17.5076 20.4589 17.2237 19.9608 17.3559 19.4784C17.716 18.1643 17.8986 16.8001 17.8986 15.4236C17.8986 13.8253 16.5983 12.525 14.9999 12.525C13.4016 12.525 12.1013 13.8253 12.1013 15.4236C12.1013 17.3489 11.491 19.1804 10.3362 20.7202C9.22055 22.208 7.63321 23.3284 5.86665 23.8752C5.77756 23.9027 5.68737 23.9159 5.5987 23.9159Z" fill="#FFB427"/>
<path d="M19.664 27.4106C19.4944 27.4106 19.323 27.363 19.1703 27.2635C18.7514 26.9905 18.6332 26.4295 18.9063 26.0105C20.3229 23.8375 21.2725 21.4394 21.7287 18.8828C21.8166 18.3905 22.2875 18.0626 22.7791 18.1505C23.2714 18.2383 23.5992 18.7086 23.5114 19.2008C23.0122 21.998 21.9733 24.6218 20.4233 26.9994C20.2497 27.2658 19.9598 27.4106 19.664 27.4106Z" fill="#FFB427"/>
<path d="M22.8865 15.4248C22.4322 15.4248 22.0406 15.0838 21.988 14.6217C21.5833 11.0692 18.5791 8.39021 14.9999 8.39021C13.9009 8.39021 12.8481 8.63764 11.8705 9.1256C11.4232 9.34876 10.8793 9.16725 10.6561 8.71985C10.4327 8.27244 10.6144 7.7287 11.0618 7.50536C12.2927 6.89088 13.6177 6.57935 14.9999 6.57935C17.183 6.57935 19.2809 7.3844 20.9071 8.84619C22.5204 10.2964 23.5432 12.2748 23.7872 14.4168C23.8438 14.9136 23.4869 15.3623 22.99 15.4189C22.9553 15.4229 22.9207 15.4248 22.8865 15.4248Z" fill="#FFB427"/>
<path d="M3.257 20.1332C2.75695 20.1332 2.35156 19.7278 2.35156 19.2278C2.35156 18.7277 2.75695 18.3223 3.257 18.3223C4.85533 18.3223 6.15565 17.022 6.15565 15.4237C6.15565 13.9435 6.53038 12.4775 7.23927 11.1844C7.47969 10.7459 8.03008 10.5854 8.46849 10.8257C8.90696 11.0661 9.06758 11.6165 8.82716 12.0549C8.2641 13.082 7.96645 14.2469 7.96645 15.4238C7.96645 18.0205 5.85378 20.1332 3.257 20.1332Z" fill="#FFB427"/>
<path d="M12.5407 2.677C12.0517 3.40074 11.6135 4.14561 11.229 4.90919C10.8161 5.05829 10.4105 5.23213 10.0127 5.43193C9.88231 5.49712 9.74408 5.52851 9.60766 5.52851C9.27567 5.52851 8.95636 5.34501 8.7976 5.02871C8.57306 4.58143 8.75414 4.03756 9.20082 3.81302C10.2692 3.27761 11.3865 2.89793 12.5407 2.677Z" fill="#FE9C00"/>
<path d="M2.92618 16.3291C2.42614 16.3291 2.02075 15.9237 2.02075 15.4237C2.02075 12.0119 3.33888 8.78775 5.73224 6.34501C6.08222 5.98779 6.65542 5.98199 7.01264 6.33197C7.36981 6.68189 7.37566 7.25515 7.02568 7.61237C4.96594 9.71455 3.83162 12.4887 3.83162 15.4237C3.83162 15.9237 3.42628 16.3291 2.92618 16.3291Z" fill="#FE9C00"/>
<path d="M12.9229 23.6927C11.9444 24.8734 10.7601 25.8796 9.42793 26.6535C9.28487 26.7368 9.12853 26.7766 8.97401 26.7766C8.66194 26.7766 8.35831 26.6148 8.1899 26.3257C7.9388 25.8935 8.08608 25.3394 8.51827 25.0877C9.84745 24.315 10.9817 23.2883 11.8738 22.0901C12.1955 22.6352 12.5456 23.17 12.9229 23.6927Z" fill="#FE9C00"/>
<path d="M15.487 26.6801C15.0705 27.157 14.6268 27.6115 14.1572 28.0419C13.9834 28.2013 13.7643 28.2797 13.5457 28.2797C13.3007 28.2797 13.0562 28.1807 12.8775 27.9864C12.5401 27.6176 12.5649 27.0447 12.9337 26.7067C13.3979 26.2811 13.8343 25.8284 14.2405 25.3516C14.6347 25.8055 15.0506 26.2485 15.487 26.6801Z" fill="#FE9C00"/>
<path d="M10.8089 20.0239C10.6635 20.2623 10.5059 20.4947 10.3363 20.7205C9.22021 22.2084 7.63329 23.3287 5.86649 23.875C5.77776 23.9028 5.68722 23.9161 5.59849 23.9161C5.21217 23.9161 4.85422 23.6668 4.7341 23.278C4.58621 22.8006 4.85362 22.2935 5.33108 22.1456C7.56629 21.4539 9.24919 19.7493 9.94214 17.6233C10.1733 18.4394 10.4637 19.2404 10.8089 20.0239Z" fill="#FE9C00"/>
<path d="M3.257 20.1332C2.75695 20.1332 2.35156 19.7278 2.35156 19.2278C2.35156 18.7277 2.75695 18.3224 3.257 18.3224C4.85533 18.3224 6.15565 17.022 6.15565 15.4237C6.15565 13.9435 6.53038 12.4775 7.23927 11.1844C7.47969 10.7459 8.03008 10.5854 8.46849 10.8257C8.90696 11.0661 9.06758 11.6165 8.82716 12.0549C8.2641 13.082 7.96645 14.2469 7.96645 15.4238C7.96645 18.0205 5.85378 20.1332 3.257 20.1332Z" fill="#FE9C00"/>
</svg>
