<svg width="30" height="30" viewBox="0 0 30 30" fill="none" xmlns="http://www.w3.org/2000/svg">
<path d="M27.0193 2.98066C25.0975 1.0582 22.5422 0 19.824 0C17.1064 0 14.5506 1.0582 12.6287 2.98066C11.0543 4.55508 10.0582 6.5502 9.74883 8.75039C9.47988 10.6582 9.76641 12.6328 10.5563 14.3801L0 24.9357V30H5.06426L6.70195 28.3617L6.68906 26.509L8.56816 26.4961L10.5809 24.4834V22.8105L12.2713 22.793L15.6199 19.4438C17.3672 20.2336 19.3418 20.5201 21.2496 20.2518C23.4498 19.9418 25.4449 18.9457 27.0193 17.3713C28.9418 15.4494 30 12.8936 30 10.176C30 7.45781 28.9418 4.90254 27.0193 2.98066ZM23.6631 9.98555C22.6559 10.9934 21.0223 10.9934 20.0145 9.98555C19.0066 8.97773 19.0066 7.34414 20.0145 6.33691C21.0223 5.3291 22.6559 5.3291 23.6631 6.33691C24.6709 7.34414 24.6709 8.97773 23.6631 9.98555Z" fill="#FEBF01"/>
<path d="M30 10.176C30 12.8936 28.9418 15.4495 27.0193 17.3713C25.4449 18.9458 23.4498 19.9418 21.2496 20.2518C19.3418 20.5202 17.3672 20.2336 15.6199 19.4438L12.2713 22.793L10.5809 22.8106V24.4834L8.56816 26.4961L6.68906 26.509L6.70195 28.3618L5.06426 30H0L20.0145 9.9856C21.0223 10.9934 22.6559 10.9934 23.6631 9.9856C24.6709 8.97778 24.6709 7.34419 23.6631 6.33696L27.0193 2.98071C28.9418 4.90259 30 7.45786 30 10.176Z" fill="#FE9100"/>
<path d="M24.2848 5.71523C22.9359 4.36641 20.7416 4.36641 19.3928 5.71523C18.0445 7.06406 18.0445 9.2584 19.3928 10.6072C20.0461 11.2605 20.915 11.6203 21.8391 11.6203C22.3008 11.6203 22.749 11.5301 23.1633 11.359C23.5775 11.1873 23.9578 10.9336 24.2848 10.6072C24.9381 9.95391 25.2978 9.08496 25.2978 8.16094C25.2978 7.2375 24.9381 6.36855 24.2848 5.71523ZM23.4117 8.8125C23.3273 9.01641 23.2025 9.20332 23.042 9.36387C22.7203 9.68555 22.2932 9.8625 21.8391 9.8625C21.3844 9.8625 20.9572 9.68555 20.6361 9.36387C19.9729 8.70059 19.9729 7.62129 20.6361 6.95801C20.9678 6.62637 21.4031 6.46055 21.8391 6.46055C22.2744 6.46055 22.7103 6.62637 23.042 6.95801C23.3631 7.27969 23.54 7.70684 23.54 8.16094C23.54 8.38828 23.4961 8.60859 23.4117 8.8125Z" fill="#FFDA2D"/>
<path d="M25.2979 8.16104C25.2979 9.08506 24.9381 9.954 24.2848 10.6073C23.9579 10.9337 23.5776 11.1874 23.1633 11.3591C22.7491 11.5302 22.3008 11.6204 21.8391 11.6204C20.9151 11.6204 20.0461 11.2606 19.3928 10.6073L20.6362 9.36396C20.9573 9.68564 21.3844 9.8626 21.8391 9.8626C22.2932 9.8626 22.7204 9.68564 23.042 9.36396C23.2026 9.20342 23.3274 9.0165 23.4118 8.8126C23.4961 8.60869 23.5401 8.38838 23.5401 8.16104C23.5401 7.70693 23.3631 7.27979 23.042 6.95811L24.2848 5.71533C24.9381 6.36865 25.2979 7.2376 25.2979 8.16104Z" fill="#FEBF01"/>
</svg>
