<svg width="361" height="361" viewBox="0 0 361 361" fill="none" xmlns="http://www.w3.org/2000/svg">
<g clip-path="url(#clip0_340_1157)">
<path d="M256.597 0H103.797C82.597 0 65.797 17.2 65.797 38V322.4C65.797 343.6 82.997 360.4 103.797 360.4H256.597C277.797 360.4 294.597 343.2 294.597 322.4V38.4C294.997 17.2 277.797 0 256.597 0ZM282.197 322.4C282.197 336.4 270.597 348 256.597 348H103.797C89.797 348 78.197 336.4 78.197 322.4V293.2H282.197V322.4ZM282.197 280.8H78.197V63.6H282.197V280.8ZM282.197 51.2H78.197V38.4C78.197 24.4 89.797 12.8 103.797 12.8H256.597C270.597 12.8 282.197 24.4 282.197 38.4V51.2Z" fill="#F9B507"/>
<path d="M205.397 153.2C202.997 151.2 198.997 151.2 196.597 153.2L168.997 177.2L159.797 164.4C157.797 161.6 153.797 160.8 150.997 162.8C148.197 164.8 147.397 168.8 149.397 171.6L162.597 190C163.797 191.6 165.397 192.4 166.997 192.4C167.397 192.4 167.397 192.4 167.797 192.4C169.397 192.4 170.997 192 171.797 190.8L204.597 162C207.397 159.6 207.397 155.6 205.397 153.2Z" fill="#F9B507"/>
<path d="M180.197 118.4C150.197 118.4 126.197 142.8 126.197 172.4C126.197 202.4 150.597 226.4 180.197 226.4C210.197 226.4 234.197 202 234.197 172.4C234.197 142.8 210.197 118.4 180.197 118.4ZM180.197 214C157.397 214 138.997 195.6 138.997 172.8C138.997 150 157.397 131.2 180.197 131.2C202.997 131.2 221.397 149.6 221.397 172.4C221.397 195.2 202.997 214 180.197 214Z" fill="#F9B507"/>
<path d="M180.197 335.2C188.592 335.2 195.397 328.395 195.397 320C195.397 311.605 188.592 304.8 180.197 304.8C171.802 304.8 164.997 311.605 164.997 320C164.997 328.395 171.802 335.2 180.197 335.2Z" fill="#F9B507"/>
</g>
<defs>
<clipPath id="clip0_340_1157">
<rect width="360.4" height="360.4" fill="white"/>
</clipPath>
</defs>
</svg>
