<svg width="512" height="512" viewBox="0 0 512 512" fill="none" xmlns="http://www.w3.org/2000/svg">
<g clip-path="url(#clip0_237_1169)">
<path d="M221.166 458.433C174.076 450.366 130.979 425.736 99.814 389.08C68.304 352.018 50.951 304.756 50.951 256.001C50.951 207.246 68.304 159.984 99.814 122.922C123.564 94.987 154.247 74.048 188.343 62.09L183.032 71.533C178.972 78.751 181.522 87.898 188.728 91.965C195.801 95.993 205.044 93.544 209.126 86.259L231.635 46.241C235.686 39.429 233.222 29.919 226.376 25.941L187.02 2.159C179.937 -2.121 170.733 0.160002 166.461 7.254C162.189 14.348 164.466 23.567 171.548 27.846L180.299 33.134C140.481 46.727 104.643 70.97 77.01 103.472C40.892 145.956 21 200.126 21 256.001C21 311.876 40.892 366.046 77.011 408.53C112.718 450.529 162.12 478.753 216.117 488.003C224.08 489.428 232.046 483.957 233.403 475.747C234.797 467.581 229.319 459.829 221.166 458.433V458.433Z" fill="#F9B507"/>
<path d="M434.989 103.472C399.282 61.473 349.88 33.249 295.883 24C287.728 22.605 279.991 28.091 278.597 36.256C277.203 44.422 282.681 52.173 290.833 53.57C337.923 61.637 381.02 86.267 412.185 122.923C443.695 159.985 461.048 207.247 461.048 256.002C461.048 304.757 443.695 352.019 412.185 389.081C388.435 417.016 357.752 437.955 323.656 449.913L328.967 440.47C333.027 433.252 330.477 424.105 323.271 420.038C316.065 415.974 306.933 418.526 302.873 425.744L280.364 465.762C276.314 472.574 278.772 482.084 285.623 486.062L324.98 509.844C331.946 514.086 341.241 511.905 345.539 504.749C349.811 497.655 347.534 488.436 340.452 484.157L331.701 478.869C371.519 465.276 407.357 441.033 434.99 408.531C471.108 366.046 491 311.877 491 256.001C491 200.125 471.108 145.956 434.989 103.472V103.472Z" fill="#F9B507"/>
<path d="M256 110.002C205.353 110.002 164.149 151.273 164.149 202.002V214.85C150.376 221.527 140.853 235.667 140.853 251.993V346.763C140.853 369.502 159.323 388.001 182.024 388.001H329.974C352.676 388.001 371.145 369.502 371.145 346.763V251.993C371.145 235.666 361.623 221.527 347.849 214.85V202.002C347.851 151.273 306.647 110.002 256 110.002V110.002ZM256 140.002C290.132 140.002 317.899 167.815 317.899 202.002V210.756H194.101V202.002C194.101 167.815 221.868 140.002 256 140.002ZM341.195 346.763C341.195 352.96 336.162 358.001 329.975 358.001H182.025C175.838 358.001 170.805 352.96 170.805 346.763V251.993C170.805 245.796 175.838 240.755 182.025 240.755H329.975C336.162 240.755 341.195 245.796 341.195 251.993V346.763Z" fill="#F9B507"/>
<path d="M256 274.001C247.729 274.001 241.024 280.717 241.024 289.001V309.755C241.024 318.039 247.729 324.755 256 324.755C264.271 324.755 270.976 318.039 270.976 309.755V289.001C270.976 280.717 264.271 274.001 256 274.001Z" fill="#F9B507"/>
</g>
<defs>
<clipPath id="clip0_237_1169">
<rect width="512" height="512" fill="white"/>
</clipPath>
</defs>
</svg>
