<svg width="30" height="30" viewBox="0 0 30 30" fill="none" xmlns="http://www.w3.org/2000/svg">
<path d="M21.3101 0H8.68706C7.47986 0 6.50464 0.979012 6.50464 2.18621V27.8166C6.50464 29.02 7.47986 30 8.68706 30H21.3101C22.5154 30 23.4944 29.021 23.4944 27.8166V2.18621C23.4934 0.979012 22.5154 0 21.3101 0ZM21.8573 24.3068H8.14169V3.68786H21.8573V24.3068ZM17.9252 2.2184H12.0729V1.58024H17.9261L17.9252 2.2184ZM20.4295 1.92678C20.4295 2.23544 20.1777 2.4854 19.87 2.4854C19.5613 2.4854 19.3104 2.2345 19.3104 1.92678C19.3104 1.61906 19.5613 1.36816 19.87 1.36816C20.1786 1.36721 20.4295 1.61812 20.4295 1.92678ZM17.6629 27.6708H12.3333V26.0309H17.6629V27.6708Z" fill="#FE9C00"/>
</svg>
